<svg xmlns="http://www.w3.org/2000/svg" viewBox="0 0 32 32" fill="none">
  <!-- QR finder rings: evenodd paths punch a transparent hole through each corner square -->
  <!-- Top-left: teal ring + dot -->
  <path fill-rule="evenodd" clip-rule="evenodd"
    d="M4.5 2A2.5 2.5 0 0 0 2 4.5v7A2.5 2.5 0 0 0 4.5 14h7A2.5 2.5 0 0 0 14 11.5v-7A2.5 2.5 0 0 0 11.5 2H4.5zm1 2.5h5a1 1 0 0 1 1 1v5a1 1 0 0 1-1 1h-5a1 1 0 0 1-1-1v-5a1 1 0 0 1 1-1z"
    fill="#2f9d8d"/>
  <rect x="6.5" y="6.5" width="3" height="3" rx="0.75" fill="#2f9d8d"/>
  <!-- Top-right: amber ring + dot -->
  <path fill-rule="evenodd" clip-rule="evenodd"
    d="M20.5 2A2.5 2.5 0 0 0 18 4.5v7A2.5 2.5 0 0 0 20.5 14h7A2.5 2.5 0 0 0 30 11.5v-7A2.5 2.5 0 0 0 27.5 2h-7zm1 2.5h5a1 1 0 0 1 1 1v5a1 1 0 0 1-1 1h-5a1 1 0 0 1-1-1v-5a1 1 0 0 1 1-1z"
    fill="#e8b04b"/>
  <rect x="22.5" y="6.5" width="3" height="3" rx="0.75" fill="#e8b04b"/>
  <!-- Bottom-left: coral ring + dot -->
  <path fill-rule="evenodd" clip-rule="evenodd"
    d="M4.5 18A2.5 2.5 0 0 0 2 20.5v7A2.5 2.5 0 0 0 4.5 30h7A2.5 2.5 0 0 0 14 27.5v-7A2.5 2.5 0 0 0 11.5 18H4.5zm1 2.5h5a1 1 0 0 1 1 1v5a1 1 0 0 1-1 1h-5a1 1 0 0 1-1-1v-5a1 1 0 0 1 1-1z"
    fill="#d9594c"/>
  <rect x="6.5" y="22.5" width="3" height="3" rx="0.75" fill="#d9594c"/>
  <!-- Data dots bottom-right -->
  <rect x="18" y="18" width="4" height="4" rx="1" fill="#2f9d8d"/>
  <rect x="24" y="18" width="4" height="4" rx="1" fill="#2f9d8d"/>
  <rect x="18" y="24" width="4" height="4" rx="1" fill="#e8b04b"/>
  <rect x="24" y="24" width="4" height="4" rx="1" fill="#d9594c"/>
</svg>
