<svg xmlns="http://www.w3.org/2000/svg" viewBox="0 0 32 32" fill="none">
  <!-- JSON brace mark: left brace teal, right brace coral, colon dots amber -->
  <!-- Left brace — teal -->
  <path d="M12 3 C9.5 3 8 4.5 8 7 L8 13 C8 14.5 6.5 15.5 5 16 C6.5 16.5 8 17.5 8 19 L8 25 C8 27.5 9.5 29 12 29"
    stroke="#2f9d8d" stroke-width="2.5" stroke-linecap="round" stroke-linejoin="round" fill="none"/>
  <!-- Right brace — coral -->
  <path d="M20 3 C22.5 3 24 4.5 24 7 L24 13 C24 14.5 25.5 15.5 27 16 C25.5 16.5 24 17.5 24 19 L24 25 C24 27.5 22.5 29 20 29"
    stroke="#d9594c" stroke-width="2.5" stroke-linecap="round" stroke-linejoin="round" fill="none"/>
  <!-- Colon dots — amber -->
  <circle cx="16" cy="13" r="1.5" fill="#e8b04b"/>
  <circle cx="16" cy="19" r="1.5" fill="#e8b04b"/>
</svg>
