<svg xmlns="http://www.w3.org/2000/svg" viewBox="0 0 32 32" fill="none">
  <!-- Left bracket segment (teal) -->
  <path d="M10 5 L7 5 Q4 5 4 8 L4 13 Q4 16 7 16 Q4 16 4 19 L4 24 Q4 27 7 27 L10 27"
    stroke="#2f9d8d" stroke-width="2.2" stroke-linecap="round" stroke-linejoin="round"/>
  <!-- Right bracket segment (coral) -->
  <path d="M22 5 L25 5 Q28 5 28 8 L28 13 Q28 16 25 16 Q28 16 28 19 L28 24 Q28 27 25 27 L22 27"
    stroke="#d9594c" stroke-width="2.2" stroke-linecap="round" stroke-linejoin="round"/>
  <!-- Center gradient dot (amber) -->
  <circle cx="16" cy="16" r="2.5" fill="#e8b04b"/>
  <!-- Small accent dots (teal, lighter) -->
  <circle cx="16" cy="10" r="1.2" fill="#2f9d8d" opacity="0.6"/>
  <circle cx="16" cy="22" r="1.2" fill="#2f9d8d" opacity="0.6"/>
</svg>
